# xmcd
#
# Track frame offsets: 
#        150
#        23674
#        40066
#        56619
#        80305
#        101055
#        120788
#        138440
#        157386
#        171781
#        196939
#        217422
#        234216
#        262991
#        292872
#        305904
#        333539
#
# Disc length: 4453 seconds
#
# Revision: 1
# Processed by: cddbd v1.5.2PL0 Copyright (c) Steve Scherf et al.
# Submitted via: ExactAudioCopy v1.0b3
#
DISCID=ee116311
DTITLE=Julian Fauth - Songs of Vice and Sorrow
DYEAR=2005
DGENRE=Blues
TTITLE0=Cobalt
TTITLE1=Running
TTITLE2=Red Richard
TTITLE3=When My Mother Died
TTITLE4=Winter of 99
TTITLE5=Big Brazos
TTITLE6=Highway 61
TTITLE7=Spadina Avenue Stomp
TTITLE8=Liza
TTITLE9=Suicide Note
TTITLE10=Flying Crow
TTITLE11=Caving In
TTITLE12=Cocaine
TTITLE13=Poor Lazarus
TTITLE14=Mojo Boogie
TTITLE15=You Can't Choose the World You Live In
TTITLE16=Scatch
EXTD=
EXTT0=
EXTT1=
EXTT2=
EXTT3=
EXTT4=
EXTT5=
EXTT6=
EXTT7=
EXTT8=
EXTT9=
EXTT10=
EXTT11=
EXTT12=
EXTT13=
EXTT14=
EXTT15=
EXTT16=
PLAYORDER=
